<?xml version="1.0" encoding="utf-8"?>
<!-- Generator: Adobe Illustrator 19.0.0, SVG Export Plug-In . SVG Version: 6.00 Build 0)  -->
<svg version="1.1" id="US_UK_Download_on_the" xmlns="http://www.w3.org/2000/svg" xmlns:xlink="http://www.w3.org/1999/xlink"
	 x="0px" y="0px" width="135px" height="40px" viewBox="-238 377 135 40" style="enable-background:new -238 377 135 40;" xml:space="preserve">
<style type="text/css">
	.st0{fill:#A6A6A6;}
	.st1{fill:#FFFFFF;}
	.st2{font-family:'MyriadPro-Semibold';}
	.st3{font-size:15px;}
	.st4{font-family:'MyriadPro-Regular';}
	.st5{font-size:10px;}
	.st6{fill:#A4C639;}
	.st7{fill:none;stroke:#000000;stroke-miterlimit:10;}
</style>
<g>
	<path class="st0" d="M-107.8,417h-125.5c-2.6,0-4.7-2.1-4.7-4.7v-30.5c0-2.6,2.1-4.7,4.7-4.7h125.5c2.6,0,4.8,2.1,4.8,4.7v30.5
		C-103,414.9-105.2,417-107.8,417z"/>
	<path d="M-104,412.3c0,2.1-1.7,3.8-3.8,3.8h-125.5c-2.1,0-3.8-1.7-3.8-3.8v-30.5c0-2.1,1.7-3.8,3.8-3.8h125.5
		c2.1,0,3.8,1.7,3.8,3.8L-104,412.3z"/>
	<text transform="matrix(1 0 0 1 -198.0977 408.5039)"><tspan x="0" y="0" class="st1 st2 st3">A</tspan><tspan x="9.5" y="0" class="st1 st2 st3">nd</tspan><tspan x="26.8" y="0" class="st1 st2 st3">r</tspan><tspan x="32" y="0" class="st1 st2 st3">oid .apk</tspan></text>
	<text transform="matrix(1 0 0 1 -111.3848 408.5039)" class="st1 st4 st3"> </text>
	<text transform="matrix(1 0 0 1 -194.5898 390.3906)"><tspan x="0" y="0" class="st1 st2 st5">D</tspan><tspan x="6.8" y="0" class="st1 st2 st5">o</tspan><tspan x="12.4" y="0" class="st1 st2 st5">wnload </tspan></text>
	<ellipse class="st6" cx="-217.2" cy="390.8" rx="9.2" ry="8.5"/>
	<path class="st6" d="M-224.1,388.7h13.9c1.2,0,2.2,1,2.2,2.2v13.9c0,1.2-1,2.2-2.2,2.2h-13.9c-1.2,0-2.2-1-2.2-2.2v-13.9
		C-226.3,389.7-225.3,388.7-224.1,388.7z"/>
	<path class="st6" d="M-223.2,380.1L-223.2,380.1c-0.3,0.2-0.4,0.6-0.3,0.9l3.6,6.4c0.2,0.3,0.6,0.4,0.9,0.3
		c0.3-0.2,0.4-0.6,0.3-0.9l-3.6-6.4C-222.5,380-222.9,379.9-223.2,380.1z"/>
	<path class="st6" d="M-205.2,390.8L-205.2,390.8c-1.3,0-2.4,1.1-2.4,2.4v8.6c0,1.3,1.1,2.4,2.4,2.4s2.4-1.1,2.4-2.4v-8.6
		C-202.7,391.9-203.8,390.8-205.2,390.8z"/>
	<path class="st6" d="M-213.7,400.6L-213.7,400.6c-1.3,0-2.4,1.1-2.4,2.4v8.6c0,1.3,1.1,2.4,2.4,2.4s2.4-1.1,2.4-2.4V403
		C-211.3,401.7-212.4,400.6-213.7,400.6z"/>
	<path class="st6" d="M-211.1,380.1L-211.1,380.1c0.3,0.2,0.4,0.6,0.3,0.9l-3.6,6.4c-0.2,0.3-0.6,0.4-0.9,0.3
		c-0.3-0.2-0.4-0.6-0.3-0.9l3.6-6.4C-211.9,380-211.5,379.9-211.1,380.1z"/>
	<path class="st6" d="M-229.2,390.8L-229.2,390.8c1.3,0,2.4,1.1,2.4,2.4v8.6c0,1.3-1.1,2.4-2.4,2.4c-1.3,0-2.4-1.1-2.4-2.4v-8.6
		C-231.6,391.9-230.5,390.8-229.2,390.8z"/>
	<path class="st6" d="M-220.6,400.6L-220.6,400.6c1.3,0,2.4,1.1,2.4,2.4v8.6c0,1.3-1.1,2.4-2.4,2.4c-1.3,0-2.4-1.1-2.4-2.4V403
		C-223,401.7-221.9,400.6-220.6,400.6z"/>
	<ellipse class="st6" cx="-217.2" cy="390.8" rx="9.2" ry="8.5"/>
	<path class="st6" d="M-224.1,388.7h13.9c1.2,0,2.2,1,2.2,2.2v13.9c0,1.2-1,2.2-2.2,2.2h-13.9c-1.2,0-2.2-1-2.2-2.2v-13.9
		C-226.3,389.7-225.3,388.7-224.1,388.7z"/>
	<line class="st1" x1="-226.7" y1="391.2" x2="-207.5" y2="391.2"/>
	<line class="st7" x1="-226.7" y1="391.2" x2="-207.5" y2="391.2"/>
	<circle class="st1" cx="-221.4" cy="386.7" r="0.4"/>
	<circle class="st1" cx="-212.7" cy="386.9" r="0.7"/>
	<circle class="st1" cx="-221.4" cy="386.9" r="0.7"/>
</g>
</svg>
