<?xml version="1.0" encoding="utf-8"?>
<!-- Generator: Adobe Illustrator 16.0.0, SVG Export Plug-In . SVG Version: 6.00 Build 0)  -->
<!DOCTYPE svg PUBLIC "-//W3C//DTD SVG 1.1//EN" "http://www.w3.org/Graphics/SVG/1.1/DTD/svg11.dtd">
<svg version="1.1" id="US_UK_Download_on_the" xmlns="http://www.w3.org/2000/svg" xmlns:xlink="http://www.w3.org/1999/xlink"
	 x="0px" y="0px" width="135px" height="40px" viewBox="0 0 135 40" enable-background="new 0 0 135 40" xml:space="preserve">
<g>
	<path fill="#A6A6A6" d="M130.197,40H4.729C2.122,40,0,37.872,0,35.268V4.726C0,2.12,2.122,0,4.729,0h125.468
		C132.803,0,135,2.12,135,4.726v30.542C135,37.872,132.803,40,130.197,40L130.197,40z"/>
	<path d="M134.032,35.268c0,2.116-1.714,3.83-3.834,3.83H4.729c-2.119,0-3.839-1.714-3.839-3.83V4.725
		c0-2.115,1.72-3.835,3.839-3.835h125.468c2.121,0,3.834,1.72,3.834,3.835L134.032,35.268L134.032,35.268z"/>
	<g>
	</g>
</g>
<path fill="#00ADEF" d="M7.176,9.969L18.03,8.491l0.004,10.469L7.186,19.021L7.176,9.969z M18.024,20.166l0.009,10.479l-10.848-1.49
	l-0.001-9.059L18.024,20.166z M19.34,8.297l14.392-2.101v12.63L19.34,18.94V8.297z M33.734,20.265l-0.003,12.573L19.34,30.807
	l-0.02-10.565L33.734,20.265z"/>
<text transform="matrix(1 0 0 1 39.9023 31.5039)"><tspan x="0" y="0" fill="#FFFFFF" font-family="'MyriadPro-Semibold'" font-size="15">Windows x86</tspan><tspan x="86.713" y="0" fill="#FFFFFF" font-family="'MyriadPro-Regular'" font-size="15"> </tspan></text>
<text transform="matrix(1 0 0 1 43.4102 13.3911)" fill="#FFFFFF" font-family="'MyriadPro-Semibold'" font-size="10">Download for</text>
</svg>
